# xmcd
# 
# Track frame offsets:
#     150
#     14958
#     32810
#     56135
#     79743
#     100475
#     115567
#     134248
#     152725
#     165130
#     185037
#     204975
#     222397
#     240095
#     254428
#     273925
#     294888
# 
# Disc length: 4185
# 
# Revision: 1
# Processed by: cddbd v1.5.2PL0 Copyright (c) Steve Scherf et al.
# Submitted via: fre:ac v1.0.27
# 
DISCID=f2105711
DTITLE=ハイ・ファイ・セット - Hi-Fi B5 Best Collection
DYEAR=1992
DGENRE=JPop
TTITLE0=01-ハロー MR.TELEPHONE
TTITLE1=02-ラブストーリーはこれから
TTITLE2=03-ブロードウェイで夕食を
TTITLE3=04-DESTINY
TTITLE4=05-最後の春休み
TTITLE5=06-よりそって二人
TTITLE6=07-緑の町に舞い降りて
TTITLE7=08-燃える秋
TTITLE8=09-キャサリン
TTITLE9=10-ミッドナイト・エンジェル
TTITLE10=11-TWO IN THE PARTY
TTITLE11=12-過去からディスタントコール
TTITLE12=13-miss you
TTITLE13=14-NOVEMBER RAIN
TTITLE14=15-心離れるころ
TTITLE15=16-流れ星
TTITLE16=17-微笑みの翳り
EXTD=5th Bestアルバム
EXTT0=
EXTT1=
EXTT2=
EXTT3=
EXTT4=
EXTT5=
EXTT6=
EXTT7=
EXTT8=
EXTT9=
EXTT10=
EXTT11=
EXTT12=
EXTT13=
EXTT14=
EXTT15=
EXTT16=
PLAYORDER=
